<?xml version="1.0" standalone="no"?>
<!DOCTYPE svg PUBLIC "-//W3C//DTD SVG 20010904//EN"
 "http://www.w3.org/TR/2001/REC-SVG-20010904/DTD/svg10.dtd">
<svg version="1.0" xmlns="http://www.w3.org/2000/svg"
 width="700.000000pt" height="700.000000pt" viewBox="0 0 700.000000 700.000000"
 preserveAspectRatio="xMidYMid meet">
<metadata>
Created by potrace 1.14, written by Peter Selinger 2001-2017
</metadata>
<g transform="translate(0.000000,700.000000) scale(0.100000,-0.100000)"
fill="#000000" stroke="none">
<path d="M346 6043 c-81 -17 -156 -57 -214 -114 -49 -48 -104 -138 -119 -194
-4 -17 -9 -1100 -10 -2407 -3 -2264 -2 -2378 14 -2379 23 0 6942 0 6966 0 16
1 17 120 17 2356 0 1685 -3 2369 -11 2407 -39 187 -205 329 -394 337 -33 2
-1439 3 -3124 4 -2385 2 -3078 -1 -3125 -10z"/>
</g>
</svg>
